<mxfile host="app.diagrams.net" modified="2022-06-26T22:48:07.469Z" agent="5.0 (Windows)" etag="5d6P11ZpA0M0YhON1irc" version="16.5.2" type="github">
  <diagram id="C5RBs43oDa-KdzZeNtuy" name="Page-1">
    <mxGraphModel dx="1736" dy="936" grid="1" gridSize="10" guides="1" tooltips="1" connect="1" arrows="1" fold="1" page="1" pageScale="1" pageWidth="827" pageHeight="1169" math="0" shadow="0">
      <root>
        <mxCell id="WIyWlLk6GJQsqaUBKTNV-0" />
        <mxCell id="WIyWlLk6GJQsqaUBKTNV-1" parent="WIyWlLk6GJQsqaUBKTNV-0" />
        <mxCell id="i1V7PmZfi-vq-YnBf2Zd-0" value="" style="rounded=0;html=1;jettySize=auto;orthogonalLoop=1;fontSize=11;endArrow=block;endFill=0;endSize=8;strokeWidth=1;shadow=0;labelBackgroundColor=none;edgeStyle=orthogonalEdgeStyle;" edge="1" parent="WIyWlLk6GJQsqaUBKTNV-1" source="i1V7PmZfi-vq-YnBf2Zd-1" target="i1V7PmZfi-vq-YnBf2Zd-4">
          <mxGeometry relative="1" as="geometry" />
        </mxCell>
        <mxCell id="i1V7PmZfi-vq-YnBf2Zd-1" value="&quot;Mission finished&quot; signal recieved from the robot" style="rounded=1;whiteSpace=wrap;html=1;fontSize=12;glass=0;strokeWidth=1;shadow=0;" vertex="1" parent="WIyWlLk6GJQsqaUBKTNV-1">
          <mxGeometry x="255" y="30" width="120" height="60" as="geometry" />
        </mxCell>
        <mxCell id="i1V7PmZfi-vq-YnBf2Zd-2" value="Yes" style="rounded=0;html=1;jettySize=auto;orthogonalLoop=1;fontSize=11;endArrow=block;endFill=0;endSize=8;strokeWidth=1;shadow=0;labelBackgroundColor=none;edgeStyle=orthogonalEdgeStyle;exitX=0;exitY=0.5;exitDx=0;exitDy=0;entryX=0.5;entryY=0;entryDx=0;entryDy=0;" edge="1" parent="WIyWlLk6GJQsqaUBKTNV-1" source="i1V7PmZfi-vq-YnBf2Zd-4" target="i1V7PmZfi-vq-YnBf2Zd-5">
          <mxGeometry x="-0.9592" y="15" relative="1" as="geometry">
            <mxPoint as="offset" />
            <mxPoint x="220" y="155" as="targetPoint" />
          </mxGeometry>
        </mxCell>
        <mxCell id="i1V7PmZfi-vq-YnBf2Zd-3" value="No" style="edgeStyle=orthogonalEdgeStyle;rounded=0;html=1;jettySize=auto;orthogonalLoop=1;fontSize=11;endArrow=block;endFill=0;endSize=8;strokeWidth=1;shadow=0;labelBackgroundColor=none;entryX=0.5;entryY=0;entryDx=0;entryDy=0;" edge="1" parent="WIyWlLk6GJQsqaUBKTNV-1" source="i1V7PmZfi-vq-YnBf2Zd-4" target="i1V7PmZfi-vq-YnBf2Zd-6">
          <mxGeometry x="0.2" y="-15" relative="1" as="geometry">
            <mxPoint as="offset" />
            <mxPoint x="315" y="230" as="targetPoint" />
          </mxGeometry>
        </mxCell>
        <mxCell id="i1V7PmZfi-vq-YnBf2Zd-4" value="&lt;div&gt;&lt;br&gt;&lt;/div&gt;&lt;div&gt;Are 10 pucks collected?&lt;/div&gt;" style="rhombus;whiteSpace=wrap;html=1;shadow=0;fontFamily=Helvetica;fontSize=12;align=center;strokeWidth=1;spacing=6;spacingTop=-4;" vertex="1" parent="WIyWlLk6GJQsqaUBKTNV-1">
          <mxGeometry x="265" y="110" width="100" height="90" as="geometry" />
        </mxCell>
        <mxCell id="i1V7PmZfi-vq-YnBf2Zd-5" value="Set destination to the blue base" style="rounded=1;whiteSpace=wrap;html=1;fontSize=12;glass=0;strokeWidth=1;shadow=0;" vertex="1" parent="WIyWlLk6GJQsqaUBKTNV-1">
          <mxGeometry x="60" y="255" width="120" height="60" as="geometry" />
        </mxCell>
        <mxCell id="i1V7PmZfi-vq-YnBf2Zd-6" value="&lt;div&gt;&lt;br&gt;&lt;/div&gt;&lt;div&gt;What is the status of the robot?&lt;/div&gt;" style="rhombus;whiteSpace=wrap;html=1;shadow=0;fontFamily=Helvetica;fontSize=12;align=center;strokeWidth=1;spacing=6;spacingTop=-4;" vertex="1" parent="WIyWlLk6GJQsqaUBKTNV-1">
          <mxGeometry x="250" y="230" width="130" height="110" as="geometry" />
        </mxCell>
        <mxCell id="i1V7PmZfi-vq-YnBf2Zd-7" value="&lt;div&gt;Puck_collected&lt;/div&gt;" style="edgeStyle=orthogonalEdgeStyle;rounded=0;jettySize=auto;orthogonalLoop=1;fontSize=11;endArrow=block;endFill=0;endSize=8;strokeWidth=1;shadow=0;labelBackgroundColor=none;exitX=0;exitY=0.5;exitDx=0;exitDy=0;html=1;entryX=1;entryY=0.5;entryDx=0;entryDy=0;" edge="1" parent="WIyWlLk6GJQsqaUBKTNV-1" source="i1V7PmZfi-vq-YnBf2Zd-6" target="i1V7PmZfi-vq-YnBf2Zd-5">
          <mxGeometry x="-0.1429" y="-25" relative="1" as="geometry">
            <mxPoint x="200" y="440" as="sourcePoint" />
            <mxPoint x="140" y="370" as="targetPoint" />
            <mxPoint as="offset" />
          </mxGeometry>
        </mxCell>
        <mxCell id="i1V7PmZfi-vq-YnBf2Zd-8" value="&lt;div&gt;No_puck&lt;/div&gt;" style="edgeStyle=orthogonalEdgeStyle;rounded=0;jettySize=auto;orthogonalLoop=1;fontSize=11;endArrow=block;endFill=0;endSize=8;strokeWidth=1;shadow=0;labelBackgroundColor=none;exitX=1;exitY=0.5;exitDx=0;exitDy=0;html=1;entryX=0;entryY=0.5;entryDx=0;entryDy=0;" edge="1" parent="WIyWlLk6GJQsqaUBKTNV-1" source="i1V7PmZfi-vq-YnBf2Zd-6" target="i1V7PmZfi-vq-YnBf2Zd-17">
          <mxGeometry x="-0.2474" y="29" relative="1" as="geometry">
            <mxPoint as="offset" />
            <mxPoint x="514" y="352.5" as="sourcePoint" />
            <mxPoint x="450" y="435" as="targetPoint" />
            <Array as="points" />
          </mxGeometry>
        </mxCell>
        <mxCell id="i1V7PmZfi-vq-YnBf2Zd-10" value="&lt;div&gt;&lt;br&gt;&lt;/div&gt;&lt;div&gt;&lt;br&gt;&lt;/div&gt;&lt;div&gt;Is the position of the robot equal to the base position?&lt;/div&gt;" style="rhombus;whiteSpace=wrap;html=1;shadow=0;fontFamily=Helvetica;fontSize=12;align=center;strokeWidth=1;spacing=6;spacingTop=-4;" vertex="1" parent="WIyWlLk6GJQsqaUBKTNV-1">
          <mxGeometry x="42.5" y="340" width="155" height="150" as="geometry" />
        </mxCell>
        <mxCell id="i1V7PmZfi-vq-YnBf2Zd-11" value="Yes" style="edgeStyle=orthogonalEdgeStyle;rounded=0;html=1;jettySize=auto;orthogonalLoop=1;fontSize=11;endArrow=block;endFill=0;endSize=8;strokeWidth=1;shadow=0;labelBackgroundColor=none;exitX=0.5;exitY=1;exitDx=0;exitDy=0;entryX=0.5;entryY=0;entryDx=0;entryDy=0;" edge="1" parent="WIyWlLk6GJQsqaUBKTNV-1" source="i1V7PmZfi-vq-YnBf2Zd-10" target="i1V7PmZfi-vq-YnBf2Zd-13">
          <mxGeometry x="-0.5" y="15" relative="1" as="geometry">
            <mxPoint as="offset" />
            <mxPoint x="137.5" y="510" as="sourcePoint" />
            <mxPoint x="120" y="540" as="targetPoint" />
            <Array as="points" />
          </mxGeometry>
        </mxCell>
        <mxCell id="i1V7PmZfi-vq-YnBf2Zd-12" value="Change robot&#39;s status to &#39;no_puck&#39;" style="rounded=1;whiteSpace=wrap;html=1;fontSize=12;glass=0;strokeWidth=1;shadow=0;" vertex="1" parent="WIyWlLk6GJQsqaUBKTNV-1">
          <mxGeometry x="60" y="600" width="120" height="50" as="geometry" />
        </mxCell>
        <mxCell id="i1V7PmZfi-vq-YnBf2Zd-13" value="Order the robot to leave the puck" style="rounded=1;whiteSpace=wrap;html=1;fontSize=12;glass=0;strokeWidth=1;shadow=0;" vertex="1" parent="WIyWlLk6GJQsqaUBKTNV-1">
          <mxGeometry x="60" y="520" width="120" height="50" as="geometry" />
        </mxCell>
        <mxCell id="i1V7PmZfi-vq-YnBf2Zd-14" value="" style="rounded=0;html=1;jettySize=auto;orthogonalLoop=1;fontSize=11;endArrow=block;endFill=0;endSize=8;strokeWidth=1;shadow=0;labelBackgroundColor=none;edgeStyle=orthogonalEdgeStyle;exitX=0.5;exitY=1;exitDx=0;exitDy=0;entryX=0.5;entryY=0;entryDx=0;entryDy=0;" edge="1" parent="WIyWlLk6GJQsqaUBKTNV-1" source="i1V7PmZfi-vq-YnBf2Zd-13" target="i1V7PmZfi-vq-YnBf2Zd-12">
          <mxGeometry relative="1" as="geometry">
            <mxPoint x="122.5" y="660" as="sourcePoint" />
            <mxPoint x="-25" y="640" as="targetPoint" />
            <Array as="points" />
          </mxGeometry>
        </mxCell>
        <mxCell id="i1V7PmZfi-vq-YnBf2Zd-15" value="" style="rounded=0;html=1;jettySize=auto;orthogonalLoop=1;fontSize=11;endArrow=block;endFill=0;endSize=8;strokeWidth=1;shadow=0;labelBackgroundColor=none;edgeStyle=orthogonalEdgeStyle;exitX=0.5;exitY=1;exitDx=0;exitDy=0;entryX=0.5;entryY=0;entryDx=0;entryDy=0;" edge="1" parent="WIyWlLk6GJQsqaUBKTNV-1" source="i1V7PmZfi-vq-YnBf2Zd-5" target="i1V7PmZfi-vq-YnBf2Zd-10">
          <mxGeometry relative="1" as="geometry">
            <mxPoint x="210" y="380" as="sourcePoint" />
            <mxPoint x="210" y="400" as="targetPoint" />
          </mxGeometry>
        </mxCell>
        <mxCell id="i1V7PmZfi-vq-YnBf2Zd-16" value="No" style="edgeStyle=orthogonalEdgeStyle;rounded=0;html=1;jettySize=auto;orthogonalLoop=1;fontSize=11;endArrow=block;endFill=0;endSize=8;strokeWidth=1;shadow=0;labelBackgroundColor=none;exitX=1;exitY=0.5;exitDx=0;exitDy=0;entryX=0.5;entryY=0;entryDx=0;entryDy=0;" edge="1" parent="WIyWlLk6GJQsqaUBKTNV-1" source="i1V7PmZfi-vq-YnBf2Zd-10" target="i1V7PmZfi-vq-YnBf2Zd-20">
          <mxGeometry x="-0.8361" y="-5" relative="1" as="geometry">
            <mxPoint x="1" as="offset" />
            <mxPoint x="250" y="415" as="targetPoint" />
            <mxPoint x="325" y="210" as="sourcePoint" />
          </mxGeometry>
        </mxCell>
        <mxCell id="i1V7PmZfi-vq-YnBf2Zd-17" value="&lt;div&gt;&lt;br&gt;&lt;/div&gt;&lt;div&gt;Is the robot in the&lt;/div&gt;&lt;div&gt;search area?&lt;br&gt;&lt;/div&gt;" style="rhombus;whiteSpace=wrap;html=1;shadow=0;fontFamily=Helvetica;fontSize=12;align=center;strokeWidth=1;spacing=6;spacingTop=-4;" vertex="1" parent="WIyWlLk6GJQsqaUBKTNV-1">
          <mxGeometry x="414" y="230" width="130" height="110" as="geometry" />
        </mxCell>
        <mxCell id="i1V7PmZfi-vq-YnBf2Zd-18" value="Yes" style="rounded=0;html=1;jettySize=auto;orthogonalLoop=1;fontSize=11;endArrow=block;endFill=0;endSize=8;strokeWidth=1;shadow=0;labelBackgroundColor=none;edgeStyle=orthogonalEdgeStyle;exitX=1;exitY=0.5;exitDx=0;exitDy=0;entryX=0.5;entryY=0;entryDx=0;entryDy=0;" edge="1" parent="WIyWlLk6GJQsqaUBKTNV-1" source="i1V7PmZfi-vq-YnBf2Zd-17" target="i1V7PmZfi-vq-YnBf2Zd-21">
          <mxGeometry x="-1" y="-15" relative="1" as="geometry">
            <mxPoint as="offset" />
            <mxPoint x="590" y="285" as="targetPoint" />
            <mxPoint x="486" y="410" as="sourcePoint" />
            <Array as="points">
              <mxPoint x="560" y="285" />
              <mxPoint x="560" y="590" />
              <mxPoint x="315" y="590" />
            </Array>
          </mxGeometry>
        </mxCell>
        <mxCell id="i1V7PmZfi-vq-YnBf2Zd-19" value="No" style="edgeStyle=orthogonalEdgeStyle;rounded=0;html=1;jettySize=auto;orthogonalLoop=1;fontSize=11;endArrow=block;endFill=0;endSize=8;strokeWidth=1;shadow=0;labelBackgroundColor=none;exitX=0.5;exitY=1;exitDx=0;exitDy=0;entryX=0.5;entryY=0;entryDx=0;entryDy=0;" edge="1" parent="WIyWlLk6GJQsqaUBKTNV-1" source="i1V7PmZfi-vq-YnBf2Zd-17" target="i1V7PmZfi-vq-YnBf2Zd-20">
          <mxGeometry x="-0.927" y="-9" relative="1" as="geometry">
            <mxPoint as="offset" />
            <mxPoint x="479" y="400" as="targetPoint" />
            <mxPoint x="207.5" y="425" as="sourcePoint" />
            <Array as="points">
              <mxPoint x="479" y="415" />
              <mxPoint x="315" y="415" />
            </Array>
          </mxGeometry>
        </mxCell>
        <mxCell id="i1V7PmZfi-vq-YnBf2Zd-20" value="Compute the wavefront algorithm for the robot" style="rounded=1;whiteSpace=wrap;html=1;fontSize=12;glass=0;strokeWidth=1;shadow=0;" vertex="1" parent="WIyWlLk6GJQsqaUBKTNV-1">
          <mxGeometry x="255" y="440" width="120" height="50" as="geometry" />
        </mxCell>
        <mxCell id="i1V7PmZfi-vq-YnBf2Zd-21" value="Is obstacle detected?" style="rhombus;whiteSpace=wrap;html=1;shadow=0;fontFamily=Helvetica;fontSize=12;align=center;strokeWidth=1;spacing=6;spacingTop=-4;" vertex="1" parent="WIyWlLk6GJQsqaUBKTNV-1">
          <mxGeometry x="257.5" y="630" width="115" height="90" as="geometry" />
        </mxCell>
        <mxCell id="i1V7PmZfi-vq-YnBf2Zd-22" value="Find path between robot and destination" style="rounded=1;whiteSpace=wrap;html=1;fontSize=12;glass=0;strokeWidth=1;shadow=0;" vertex="1" parent="WIyWlLk6GJQsqaUBKTNV-1">
          <mxGeometry x="255" y="520" width="120" height="50" as="geometry" />
        </mxCell>
        <mxCell id="i1V7PmZfi-vq-YnBf2Zd-23" value="" style="rounded=0;html=1;jettySize=auto;orthogonalLoop=1;fontSize=11;endArrow=block;endFill=0;endSize=8;strokeWidth=1;shadow=0;labelBackgroundColor=none;edgeStyle=orthogonalEdgeStyle;exitX=0.5;exitY=1;exitDx=0;exitDy=0;entryX=0.5;entryY=0;entryDx=0;entryDy=0;" edge="1" parent="WIyWlLk6GJQsqaUBKTNV-1" source="i1V7PmZfi-vq-YnBf2Zd-20" target="i1V7PmZfi-vq-YnBf2Zd-22">
          <mxGeometry relative="1" as="geometry">
            <mxPoint x="130" y="570" as="sourcePoint" />
            <mxPoint x="130" y="615" as="targetPoint" />
            <Array as="points" />
          </mxGeometry>
        </mxCell>
        <mxCell id="i1V7PmZfi-vq-YnBf2Zd-24" value="" style="rounded=0;html=1;jettySize=auto;orthogonalLoop=1;fontSize=11;endArrow=block;endFill=0;endSize=8;strokeWidth=1;shadow=0;labelBackgroundColor=none;edgeStyle=orthogonalEdgeStyle;exitX=0.5;exitY=1;exitDx=0;exitDy=0;entryX=0.5;entryY=0;entryDx=0;entryDy=0;" edge="1" parent="WIyWlLk6GJQsqaUBKTNV-1" source="i1V7PmZfi-vq-YnBf2Zd-22" target="i1V7PmZfi-vq-YnBf2Zd-21">
          <mxGeometry relative="1" as="geometry">
            <mxPoint x="140" y="580" as="sourcePoint" />
            <mxPoint x="140" y="625" as="targetPoint" />
            <Array as="points" />
          </mxGeometry>
        </mxCell>
        <mxCell id="i1V7PmZfi-vq-YnBf2Zd-25" value="Yes" style="rounded=0;html=1;jettySize=auto;orthogonalLoop=1;fontSize=11;endArrow=block;endFill=0;endSize=8;strokeWidth=1;shadow=0;labelBackgroundColor=none;edgeStyle=orthogonalEdgeStyle;exitX=1;exitY=0.5;exitDx=0;exitDy=0;entryX=0;entryY=0.5;entryDx=0;entryDy=0;" edge="1" parent="WIyWlLk6GJQsqaUBKTNV-1" source="i1V7PmZfi-vq-YnBf2Zd-21" target="i1V7PmZfi-vq-YnBf2Zd-30">
          <mxGeometry x="-1" y="-15" relative="1" as="geometry">
            <mxPoint x="420" y="675" as="targetPoint" />
            <mxPoint x="110" y="820" as="sourcePoint" />
            <mxPoint as="offset" />
          </mxGeometry>
        </mxCell>
        <mxCell id="i1V7PmZfi-vq-YnBf2Zd-26" value="No" style="edgeStyle=orthogonalEdgeStyle;rounded=0;html=1;jettySize=auto;orthogonalLoop=1;fontSize=11;endArrow=block;endFill=0;endSize=8;strokeWidth=1;shadow=0;labelBackgroundColor=none;exitX=0.5;exitY=1;exitDx=0;exitDy=0;entryX=0.5;entryY=0;entryDx=0;entryDy=0;" edge="1" parent="WIyWlLk6GJQsqaUBKTNV-1" source="i1V7PmZfi-vq-YnBf2Zd-21" target="i1V7PmZfi-vq-YnBf2Zd-27">
          <mxGeometry x="-1" y="-15" relative="1" as="geometry">
            <mxPoint as="offset" />
            <mxPoint x="430" y="645" as="targetPoint" />
            <mxPoint x="420.25" y="650" as="sourcePoint" />
          </mxGeometry>
        </mxCell>
        <mxCell id="i1V7PmZfi-vq-YnBf2Zd-27" value="Move one cell" style="rounded=1;whiteSpace=wrap;html=1;fontSize=12;glass=0;strokeWidth=1;shadow=0;" vertex="1" parent="WIyWlLk6GJQsqaUBKTNV-1">
          <mxGeometry x="255" y="740" width="120" height="50" as="geometry" />
        </mxCell>
        <mxCell id="i1V7PmZfi-vq-YnBf2Zd-28" value="Is the puck detected?" style="rhombus;whiteSpace=wrap;html=1;shadow=0;fontFamily=Helvetica;fontSize=12;align=center;strokeWidth=1;spacing=6;spacingTop=-4;" vertex="1" parent="WIyWlLk6GJQsqaUBKTNV-1">
          <mxGeometry x="257.5" y="810" width="115" height="90" as="geometry" />
        </mxCell>
        <mxCell id="i1V7PmZfi-vq-YnBf2Zd-29" value="" style="rounded=0;html=1;jettySize=auto;orthogonalLoop=1;fontSize=11;endArrow=block;endFill=0;endSize=8;strokeWidth=1;shadow=0;labelBackgroundColor=none;edgeStyle=orthogonalEdgeStyle;exitX=0.5;exitY=1;exitDx=0;exitDy=0;entryX=0.5;entryY=0;entryDx=0;entryDy=0;" edge="1" parent="WIyWlLk6GJQsqaUBKTNV-1" source="i1V7PmZfi-vq-YnBf2Zd-27" target="i1V7PmZfi-vq-YnBf2Zd-28">
          <mxGeometry relative="1" as="geometry">
            <mxPoint x="181" y="680" as="sourcePoint" />
            <mxPoint x="181" y="725" as="targetPoint" />
            <Array as="points" />
          </mxGeometry>
        </mxCell>
        <mxCell id="i1V7PmZfi-vq-YnBf2Zd-30" value="Wait specified amount of time" style="rounded=1;whiteSpace=wrap;html=1;fontSize=12;glass=0;strokeWidth=1;shadow=0;" vertex="1" parent="WIyWlLk6GJQsqaUBKTNV-1">
          <mxGeometry x="419" y="650" width="120" height="50" as="geometry" />
        </mxCell>
        <mxCell id="i1V7PmZfi-vq-YnBf2Zd-31" value="Is obstacle detected?" style="rhombus;whiteSpace=wrap;html=1;shadow=0;fontFamily=Helvetica;fontSize=12;align=center;strokeWidth=1;spacing=6;spacingTop=-4;" vertex="1" parent="WIyWlLk6GJQsqaUBKTNV-1">
          <mxGeometry x="421.5" y="720" width="115" height="90" as="geometry" />
        </mxCell>
        <mxCell id="i1V7PmZfi-vq-YnBf2Zd-32" value="" style="rounded=0;html=1;jettySize=auto;orthogonalLoop=1;fontSize=11;endArrow=block;endFill=0;endSize=8;strokeWidth=1;shadow=0;labelBackgroundColor=none;edgeStyle=orthogonalEdgeStyle;exitX=0.5;exitY=1;exitDx=0;exitDy=0;entryX=0.5;entryY=0;entryDx=0;entryDy=0;" edge="1" parent="WIyWlLk6GJQsqaUBKTNV-1" source="i1V7PmZfi-vq-YnBf2Zd-30" target="i1V7PmZfi-vq-YnBf2Zd-31">
          <mxGeometry relative="1" as="geometry">
            <mxPoint x="130" y="580" as="sourcePoint" />
            <mxPoint x="130" y="610" as="targetPoint" />
            <Array as="points" />
          </mxGeometry>
        </mxCell>
        <mxCell id="i1V7PmZfi-vq-YnBf2Zd-33" value="No" style="edgeStyle=orthogonalEdgeStyle;rounded=0;html=1;jettySize=auto;orthogonalLoop=1;fontSize=11;endArrow=block;endFill=0;endSize=8;strokeWidth=1;shadow=0;labelBackgroundColor=none;exitX=0;exitY=0.5;exitDx=0;exitDy=0;entryX=1;entryY=0.5;entryDx=0;entryDy=0;" edge="1" parent="WIyWlLk6GJQsqaUBKTNV-1" source="i1V7PmZfi-vq-YnBf2Zd-31" target="i1V7PmZfi-vq-YnBf2Zd-27">
          <mxGeometry x="-1" y="-15" relative="1" as="geometry">
            <mxPoint as="offset" />
            <mxPoint x="410" y="740" as="targetPoint" />
            <mxPoint x="325" y="730" as="sourcePoint" />
          </mxGeometry>
        </mxCell>
        <mxCell id="i1V7PmZfi-vq-YnBf2Zd-34" value="Yes" style="rounded=0;html=1;jettySize=auto;orthogonalLoop=1;fontSize=11;endArrow=block;endFill=0;endSize=8;strokeWidth=1;shadow=0;labelBackgroundColor=none;edgeStyle=orthogonalEdgeStyle;exitX=0.5;exitY=1;exitDx=0;exitDy=0;entryX=0.5;entryY=0;entryDx=0;entryDy=0;" edge="1" parent="WIyWlLk6GJQsqaUBKTNV-1" source="i1V7PmZfi-vq-YnBf2Zd-28" target="i1V7PmZfi-vq-YnBf2Zd-40">
          <mxGeometry x="-1" y="-15" relative="1" as="geometry">
            <mxPoint x="315" y="960" as="targetPoint" />
            <mxPoint x="382.5" y="685" as="sourcePoint" />
            <mxPoint as="offset" />
          </mxGeometry>
        </mxCell>
        <mxCell id="i1V7PmZfi-vq-YnBf2Zd-35" value="Move to the previous cell" style="rounded=1;whiteSpace=wrap;html=1;fontSize=12;glass=0;strokeWidth=1;shadow=0;" vertex="1" parent="WIyWlLk6GJQsqaUBKTNV-1">
          <mxGeometry x="416.5" y="830" width="120" height="50" as="geometry" />
        </mxCell>
        <mxCell id="i1V7PmZfi-vq-YnBf2Zd-36" value="Yes" style="rounded=0;html=1;jettySize=auto;orthogonalLoop=1;fontSize=11;endArrow=block;endFill=0;endSize=8;strokeWidth=1;shadow=0;labelBackgroundColor=none;edgeStyle=orthogonalEdgeStyle;exitX=0.5;exitY=1;exitDx=0;exitDy=0;entryX=0.5;entryY=0;entryDx=0;entryDy=0;" edge="1" parent="WIyWlLk6GJQsqaUBKTNV-1" source="i1V7PmZfi-vq-YnBf2Zd-31" target="i1V7PmZfi-vq-YnBf2Zd-35">
          <mxGeometry x="-0.7778" y="-16" relative="1" as="geometry">
            <mxPoint x="479" y="870" as="targetPoint" />
            <mxPoint x="267.5" y="895" as="sourcePoint" />
            <mxPoint x="-17" y="16" as="offset" />
          </mxGeometry>
        </mxCell>
        <mxCell id="i1V7PmZfi-vq-YnBf2Zd-38" value="Wait specified amount of time" style="rounded=1;whiteSpace=wrap;html=1;fontSize=12;glass=0;strokeWidth=1;shadow=0;" vertex="1" parent="WIyWlLk6GJQsqaUBKTNV-1">
          <mxGeometry x="416.5" y="930" width="120" height="50" as="geometry" />
        </mxCell>
        <mxCell id="i1V7PmZfi-vq-YnBf2Zd-39" value="" style="rounded=0;html=1;jettySize=auto;orthogonalLoop=1;fontSize=11;endArrow=block;endFill=0;endSize=8;strokeWidth=1;shadow=0;labelBackgroundColor=none;edgeStyle=orthogonalEdgeStyle;exitX=0.5;exitY=1;exitDx=0;exitDy=0;" edge="1" parent="WIyWlLk6GJQsqaUBKTNV-1" source="i1V7PmZfi-vq-YnBf2Zd-35" target="i1V7PmZfi-vq-YnBf2Zd-38">
          <mxGeometry relative="1" as="geometry">
            <mxPoint x="325" y="820" as="sourcePoint" />
            <mxPoint x="325" y="850" as="targetPoint" />
            <Array as="points" />
          </mxGeometry>
        </mxCell>
        <mxCell id="i1V7PmZfi-vq-YnBf2Zd-40" value="Order robot to collect the puck" style="rounded=1;whiteSpace=wrap;html=1;fontSize=12;glass=0;strokeWidth=1;shadow=0;" vertex="1" parent="WIyWlLk6GJQsqaUBKTNV-1">
          <mxGeometry x="255" y="930" width="120" height="50" as="geometry" />
        </mxCell>
        <mxCell id="i1V7PmZfi-vq-YnBf2Zd-41" value="Change robot status to &#39;puck_collected&#39;" style="rounded=1;whiteSpace=wrap;html=1;fontSize=12;glass=0;strokeWidth=1;shadow=0;" vertex="1" parent="WIyWlLk6GJQsqaUBKTNV-1">
          <mxGeometry x="255" y="1010" width="120" height="50" as="geometry" />
        </mxCell>
        <mxCell id="i1V7PmZfi-vq-YnBf2Zd-42" value="" style="rounded=0;html=1;jettySize=auto;orthogonalLoop=1;fontSize=11;endArrow=block;endFill=0;endSize=8;strokeWidth=1;shadow=0;labelBackgroundColor=none;edgeStyle=orthogonalEdgeStyle;exitX=0.5;exitY=1;exitDx=0;exitDy=0;entryX=0.5;entryY=0;entryDx=0;entryDy=0;" edge="1" parent="WIyWlLk6GJQsqaUBKTNV-1" source="i1V7PmZfi-vq-YnBf2Zd-40" target="i1V7PmZfi-vq-YnBf2Zd-41">
          <mxGeometry relative="1" as="geometry">
            <mxPoint x="489" y="920" as="sourcePoint" />
            <mxPoint x="489" y="970" as="targetPoint" />
            <Array as="points" />
          </mxGeometry>
        </mxCell>
      </root>
    </mxGraphModel>
  </diagram>
</mxfile>
